<svg xmlns="http://www.w3.org/2000/svg" width="1000" height="340" viewBox="0 0 1000 340">
<rect width="100%" height="100%" fill="#ffffff"/>
<text x="66.0" y="24.0" font-family="Segoe UI, Helvetica, Arial, sans-serif" font-size="15" fill="#22313f" text-anchor="start" font-weight="bold">Log volume timeline (Linux_2k.log)</text>
<text x="66.0" y="40.0" font-family="Segoe UI, Helvetica, Arial, sans-serif" font-size="11" fill="#6b7c8d" text-anchor="start" font-weight="normal">bucket=21600s   buckets=173   total=2000 lines   alerts=42</text>
<line x1="66.0" y1="294.0" x2="976.0" y2="294.0" stroke="#e6ebf0" stroke-width="1"/>
<text x="58.0" y="298.0" font-family="Segoe UI, Helvetica, Arial, sans-serif" font-size="10" fill="#5b6b7c" text-anchor="end" font-weight="normal">0</text>
<line x1="66.0" y1="232.0" x2="976.0" y2="232.0" stroke="#e6ebf0" stroke-width="1"/>
<text x="58.0" y="236.0" font-family="Segoe UI, Helvetica, Arial, sans-serif" font-size="10" fill="#5b6b7c" text-anchor="end" font-weight="normal">28</text>
<line x1="66.0" y1="170.0" x2="976.0" y2="170.0" stroke="#e6ebf0" stroke-width="1"/>
<text x="58.0" y="174.0" font-family="Segoe UI, Helvetica, Arial, sans-serif" font-size="10" fill="#5b6b7c" text-anchor="end" font-weight="normal">56</text>
<line x1="66.0" y1="108.0" x2="976.0" y2="108.0" stroke="#e6ebf0" stroke-width="1"/>
<text x="58.0" y="112.0" font-family="Segoe UI, Helvetica, Arial, sans-serif" font-size="10" fill="#5b6b7c" text-anchor="end" font-weight="normal">85</text>
<line x1="66.0" y1="46.0" x2="976.0" y2="46.0" stroke="#e6ebf0" stroke-width="1"/>
<text x="58.0" y="50.0" font-family="Segoe UI, Helvetica, Arial, sans-serif" font-size="10" fill="#5b6b7c" text-anchor="end" font-weight="normal">113</text>
<line x1="66.0" y1="294.0" x2="976.0" y2="294.0" stroke="#5b6b7c" stroke-width="1"/>
<line x1="66.0" y1="46.0" x2="66.0" y2="294.0" stroke="#5b6b7c" stroke-width="1"/>
<rect x="66.0" y="287.4" width="4.9" height="6.6" fill="#9fb8cc"/>
<rect x="71.3" y="294.0" width="4.9" height="0.0" fill="#9fb8cc"/>
<rect x="76.5" y="261.1" width="4.9" height="32.9" fill="#e74c3c"/>
<rect x="81.8" y="294.0" width="4.9" height="0.0" fill="#9fb8cc"/>
<rect x="87.0" y="197.4" width="4.9" height="96.6" fill="#e74c3c"/>
<rect x="92.3" y="272.1" width="4.9" height="21.9" fill="#e74c3c"/>
<rect x="97.6" y="283.0" width="4.9" height="11.0" fill="#9fb8cc"/>
<rect x="102.8" y="294.0" width="4.9" height="0.0" fill="#9fb8cc"/>
<rect x="108.1" y="294.0" width="4.9" height="0.0" fill="#9fb8cc"/>
<rect x="113.3" y="294.0" width="4.9" height="0.0" fill="#9fb8cc"/>
<rect x="118.6" y="283.0" width="4.9" height="11.0" fill="#9fb8cc"/>
<rect x="123.9" y="276.4" width="4.9" height="17.6" fill="#e74c3c"/>
<rect x="129.1" y="294.0" width="4.9" height="0.0" fill="#9fb8cc"/>
<rect x="134.4" y="272.1" width="4.9" height="21.9" fill="#e74c3c"/>
<rect x="139.6" y="204.0" width="4.9" height="90.0" fill="#e74c3c"/>
<rect x="144.9" y="294.0" width="4.9" height="0.0" fill="#9fb8cc"/>
<rect x="150.2" y="294.0" width="4.9" height="0.0" fill="#9fb8cc"/>
<rect x="155.4" y="294.0" width="4.9" height="0.0" fill="#9fb8cc"/>
<rect x="160.7" y="276.4" width="4.9" height="17.6" fill="#e74c3c"/>
<rect x="165.9" y="294.0" width="4.9" height="0.0" fill="#9fb8cc"/>
<rect x="171.2" y="294.0" width="4.9" height="0.0" fill="#9fb8cc"/>
<rect x="176.5" y="294.0" width="4.9" height="0.0" fill="#9fb8cc"/>
<rect x="181.7" y="254.5" width="4.9" height="39.5" fill="#e74c3c"/>
<rect x="187.0" y="250.1" width="4.9" height="43.9" fill="#e74c3c"/>
<rect x="192.2" y="294.0" width="4.9" height="0.0" fill="#9fb8cc"/>
<rect x="197.5" y="294.0" width="4.9" height="0.0" fill="#9fb8cc"/>
<rect x="202.8" y="283.0" width="4.9" height="11.0" fill="#9fb8cc"/>
<rect x="208.0" y="280.8" width="4.9" height="13.2" fill="#e74c3c"/>
<rect x="213.3" y="294.0" width="4.9" height="0.0" fill="#9fb8cc"/>
<rect x="218.5" y="294.0" width="4.9" height="0.0" fill="#9fb8cc"/>
<rect x="223.8" y="188.7" width="4.9" height="105.3" fill="#e74c3c"/>
<rect x="229.1" y="294.0" width="4.9" height="0.0" fill="#9fb8cc"/>
<rect x="234.3" y="243.5" width="4.9" height="50.5" fill="#e74c3c"/>
<rect x="239.6" y="294.0" width="4.9" height="0.0" fill="#9fb8cc"/>
<rect x="244.8" y="256.7" width="4.9" height="37.3" fill="#e74c3c"/>
<rect x="250.1" y="294.0" width="4.9" height="0.0" fill="#9fb8cc"/>
<rect x="255.4" y="294.0" width="4.9" height="0.0" fill="#9fb8cc"/>
<rect x="260.6" y="274.2" width="4.9" height="19.8" fill="#e74c3c"/>
<rect x="265.9" y="283.0" width="4.9" height="11.0" fill="#9fb8cc"/>
<rect x="271.1" y="294.0" width="4.9" height="0.0" fill="#9fb8cc"/>
<rect x="276.4" y="294.0" width="4.9" height="0.0" fill="#9fb8cc"/>
<rect x="281.7" y="265.5" width="4.9" height="28.5" fill="#e74c3c"/>
<rect x="286.9" y="239.1" width="4.9" height="54.9" fill="#e74c3c"/>
<rect x="292.2" y="254.5" width="4.9" height="39.5" fill="#e74c3c"/>
<rect x="297.4" y="294.0" width="4.9" height="0.0" fill="#9fb8cc"/>
<rect x="302.7" y="265.5" width="4.9" height="28.5" fill="#e74c3c"/>
<rect x="308.0" y="276.4" width="4.9" height="17.6" fill="#9fb8cc"/>
<rect x="313.2" y="294.0" width="4.9" height="0.0" fill="#9fb8cc"/>
<rect x="318.5" y="294.0" width="4.9" height="0.0" fill="#9fb8cc"/>
<rect x="323.7" y="294.0" width="4.9" height="0.0" fill="#9fb8cc"/>
<rect x="329.0" y="283.0" width="4.9" height="11.0" fill="#9fb8cc"/>
<rect x="334.3" y="283.0" width="4.9" height="11.0" fill="#e74c3c"/>
<rect x="339.5" y="294.0" width="4.9" height="0.0" fill="#9fb8cc"/>
<rect x="344.8" y="294.0" width="4.9" height="0.0" fill="#9fb8cc"/>
<rect x="350.0" y="283.0" width="4.9" height="11.0" fill="#9fb8cc"/>
<rect x="355.3" y="274.2" width="4.9" height="19.8" fill="#e74c3c"/>
<rect x="360.6" y="294.0" width="4.9" height="0.0" fill="#9fb8cc"/>
<rect x="365.8" y="250.1" width="4.9" height="43.9" fill="#e74c3c"/>
<rect x="371.1" y="232.5" width="4.9" height="61.5" fill="#e74c3c"/>
<rect x="376.3" y="221.6" width="4.9" height="72.4" fill="#e74c3c"/>
<rect x="381.6" y="250.1" width="4.9" height="43.9" fill="#e74c3c"/>
<rect x="386.9" y="294.0" width="4.9" height="0.0" fill="#9fb8cc"/>
<rect x="392.1" y="283.0" width="4.9" height="11.0" fill="#9fb8cc"/>
<rect x="397.4" y="294.0" width="4.9" height="0.0" fill="#9fb8cc"/>
<rect x="402.6" y="258.9" width="4.9" height="35.1" fill="#e74c3c"/>
<rect x="407.9" y="116.2" width="4.9" height="177.8" fill="#e74c3c"/>
<rect x="413.2" y="243.5" width="4.9" height="50.5" fill="#e74c3c"/>
<rect x="418.4" y="204.0" width="4.9" height="90.0" fill="#e74c3c"/>
<rect x="423.7" y="294.0" width="4.9" height="0.0" fill="#9fb8cc"/>
<rect x="428.9" y="294.0" width="4.9" height="0.0" fill="#9fb8cc"/>
<rect x="434.2" y="204.0" width="4.9" height="90.0" fill="#e74c3c"/>
<rect x="439.5" y="294.0" width="4.9" height="0.0" fill="#9fb8cc"/>
<rect x="444.7" y="294.0" width="4.9" height="0.0" fill="#9fb8cc"/>
<rect x="450.0" y="294.0" width="4.9" height="0.0" fill="#9fb8cc"/>
<rect x="455.2" y="276.4" width="4.9" height="17.6" fill="#9fb8cc"/>
<rect x="460.5" y="243.5" width="4.9" height="50.5" fill="#e74c3c"/>
<rect x="465.8" y="294.0" width="4.9" height="0.0" fill="#9fb8cc"/>
<rect x="471.0" y="243.5" width="4.9" height="50.5" fill="#e74c3c"/>
<rect x="476.3" y="283.0" width="4.9" height="11.0" fill="#9fb8cc"/>
<rect x="481.5" y="287.4" width="4.9" height="6.6" fill="#9fb8cc"/>
<rect x="486.8" y="243.5" width="4.9" height="50.5" fill="#e74c3c"/>
<rect x="492.1" y="265.5" width="4.9" height="28.5" fill="#e74c3c"/>
<rect x="497.3" y="283.0" width="4.9" height="11.0" fill="#9fb8cc"/>
<rect x="502.6" y="294.0" width="4.9" height="0.0" fill="#9fb8cc"/>
<rect x="507.8" y="221.6" width="4.9" height="72.4" fill="#e74c3c"/>
<rect x="513.1" y="294.0" width="4.9" height="0.0" fill="#9fb8cc"/>
<rect x="518.4" y="272.1" width="4.9" height="21.9" fill="#e74c3c"/>
<rect x="523.6" y="294.0" width="4.9" height="0.0" fill="#9fb8cc"/>
<rect x="528.9" y="294.0" width="4.9" height="0.0" fill="#9fb8cc"/>
<rect x="534.2" y="243.5" width="4.9" height="50.5" fill="#e74c3c"/>
<rect x="539.4" y="283.0" width="4.9" height="11.0" fill="#9fb8cc"/>
<rect x="544.7" y="239.1" width="4.9" height="54.9" fill="#e74c3c"/>
<rect x="549.9" y="250.1" width="4.9" height="43.9" fill="#e74c3c"/>
<rect x="555.2" y="252.3" width="4.9" height="41.7" fill="#e74c3c"/>
<rect x="560.5" y="283.0" width="4.9" height="11.0" fill="#9fb8cc"/>
<rect x="565.7" y="294.0" width="4.9" height="0.0" fill="#9fb8cc"/>
<rect x="571.0" y="294.0" width="4.9" height="0.0" fill="#9fb8cc"/>
<rect x="576.2" y="285.2" width="4.9" height="8.8" fill="#9fb8cc"/>
<rect x="581.5" y="283.0" width="4.9" height="11.0" fill="#9fb8cc"/>
<rect x="586.8" y="243.5" width="4.9" height="50.5" fill="#e74c3c"/>
<rect x="592.0" y="204.0" width="4.9" height="90.0" fill="#e74c3c"/>
<rect x="597.3" y="221.6" width="4.9" height="72.4" fill="#e74c3c"/>
<rect x="602.5" y="226.0" width="4.9" height="68.0" fill="#e74c3c"/>
<rect x="607.8" y="243.5" width="4.9" height="50.5" fill="#e74c3c"/>
<rect x="613.1" y="46.0" width="4.9" height="248.0" fill="#e74c3c"/>
<rect x="618.3" y="294.0" width="4.9" height="0.0" fill="#9fb8cc"/>
<rect x="623.6" y="261.1" width="4.9" height="32.9" fill="#e74c3c"/>
<rect x="628.8" y="287.4" width="4.9" height="6.6" fill="#e74c3c"/>
<rect x="634.1" y="272.1" width="4.9" height="21.9" fill="#e74c3c"/>
<rect x="639.4" y="294.0" width="4.9" height="0.0" fill="#9fb8cc"/>
<rect x="644.6" y="283.0" width="4.9" height="11.0" fill="#9fb8cc"/>
<rect x="649.9" y="272.1" width="4.9" height="21.9" fill="#e74c3c"/>
<rect x="655.1" y="294.0" width="4.9" height="0.0" fill="#9fb8cc"/>
<rect x="660.4" y="294.0" width="4.9" height="0.0" fill="#9fb8cc"/>
<rect x="665.7" y="283.0" width="4.9" height="11.0" fill="#9fb8cc"/>
<rect x="670.9" y="294.0" width="4.9" height="0.0" fill="#9fb8cc"/>
<rect x="676.2" y="280.8" width="4.9" height="13.2" fill="#9fb8cc"/>
<rect x="681.4" y="294.0" width="4.9" height="0.0" fill="#9fb8cc"/>
<rect x="686.7" y="283.0" width="4.9" height="11.0" fill="#9fb8cc"/>
<rect x="692.0" y="294.0" width="4.9" height="0.0" fill="#9fb8cc"/>
<rect x="697.2" y="276.4" width="4.9" height="17.6" fill="#e74c3c"/>
<rect x="702.5" y="294.0" width="4.9" height="0.0" fill="#9fb8cc"/>
<rect x="707.7" y="261.1" width="4.9" height="32.9" fill="#e74c3c"/>
<rect x="713.0" y="294.0" width="4.9" height="0.0" fill="#9fb8cc"/>
<rect x="718.3" y="294.0" width="4.9" height="0.0" fill="#9fb8cc"/>
<rect x="723.5" y="245.7" width="4.9" height="48.3" fill="#e74c3c"/>
<rect x="728.8" y="283.0" width="4.9" height="11.0" fill="#9fb8cc"/>
<rect x="734.0" y="243.5" width="4.9" height="50.5" fill="#e74c3c"/>
<rect x="739.3" y="294.0" width="4.9" height="0.0" fill="#9fb8cc"/>
<rect x="744.6" y="294.0" width="4.9" height="0.0" fill="#9fb8cc"/>
<rect x="749.8" y="272.1" width="4.9" height="21.9" fill="#9fb8cc"/>
<rect x="755.1" y="151.3" width="4.9" height="142.7" fill="#e74c3c"/>
<rect x="760.3" y="142.6" width="4.9" height="151.4" fill="#e74c3c"/>
<rect x="765.6" y="193.0" width="4.9" height="101.0" fill="#e74c3c"/>
<rect x="770.9" y="236.9" width="4.9" height="57.1" fill="#e74c3c"/>
<rect x="776.1" y="294.0" width="4.9" height="0.0" fill="#9fb8cc"/>
<rect x="781.4" y="294.0" width="4.9" height="0.0" fill="#9fb8cc"/>
<rect x="786.6" y="250.1" width="4.9" height="43.9" fill="#e74c3c"/>
<rect x="791.9" y="283.0" width="4.9" height="11.0" fill="#9fb8cc"/>
<rect x="797.2" y="272.1" width="4.9" height="21.9" fill="#e74c3c"/>
<rect x="802.4" y="294.0" width="4.9" height="0.0" fill="#9fb8cc"/>
<rect x="807.7" y="294.0" width="4.9" height="0.0" fill="#9fb8cc"/>
<rect x="812.9" y="283.0" width="4.9" height="11.0" fill="#9fb8cc"/>
<rect x="818.2" y="294.0" width="4.9" height="0.0" fill="#9fb8cc"/>
<rect x="823.5" y="294.0" width="4.9" height="0.0" fill="#9fb8cc"/>
<rect x="828.7" y="272.1" width="4.9" height="21.9" fill="#e74c3c"/>
<rect x="834.0" y="274.2" width="4.9" height="19.8" fill="#9fb8cc"/>
<rect x="839.2" y="243.5" width="4.9" height="50.5" fill="#e74c3c"/>
<rect x="844.5" y="289.6" width="4.9" height="4.4" fill="#9fb8cc"/>
<rect x="849.8" y="294.0" width="4.9" height="0.0" fill="#9fb8cc"/>
<rect x="855.0" y="283.0" width="4.9" height="11.0" fill="#9fb8cc"/>
<rect x="860.3" y="243.5" width="4.9" height="50.5" fill="#e74c3c"/>
<rect x="865.5" y="294.0" width="4.9" height="0.0" fill="#9fb8cc"/>
<rect x="870.8" y="243.5" width="4.9" height="50.5" fill="#e74c3c"/>
<rect x="876.1" y="283.0" width="4.9" height="11.0" fill="#9fb8cc"/>
<rect x="881.3" y="291.8" width="4.9" height="2.2" fill="#9fb8cc"/>
<rect x="886.6" y="294.0" width="4.9" height="0.0" fill="#9fb8cc"/>
<rect x="891.8" y="272.1" width="4.9" height="21.9" fill="#e74c3c"/>
<rect x="897.1" y="221.6" width="4.9" height="72.4" fill="#e74c3c"/>
<rect x="902.4" y="283.0" width="4.9" height="11.0" fill="#e74c3c"/>
<rect x="907.6" y="252.3" width="4.9" height="41.7" fill="#e74c3c"/>
<rect x="912.9" y="294.0" width="4.9" height="0.0" fill="#9fb8cc"/>
<rect x="918.1" y="283.0" width="4.9" height="11.0" fill="#9fb8cc"/>
<rect x="923.4" y="243.5" width="4.9" height="50.5" fill="#e74c3c"/>
<rect x="928.7" y="258.9" width="4.9" height="35.1" fill="#e74c3c"/>
<rect x="933.9" y="239.1" width="4.9" height="54.9" fill="#e74c3c"/>
<rect x="939.2" y="232.5" width="4.9" height="61.5" fill="#e74c3c"/>
<rect x="944.4" y="243.5" width="4.9" height="50.5" fill="#e74c3c"/>
<rect x="949.7" y="294.0" width="4.9" height="0.0" fill="#9fb8cc"/>
<rect x="955.0" y="294.0" width="4.9" height="0.0" fill="#9fb8cc"/>
<rect x="960.2" y="283.0" width="4.9" height="11.0" fill="#9fb8cc"/>
<rect x="965.5" y="291.8" width="4.9" height="2.2" fill="#9fb8cc"/>
<rect x="970.7" y="89.9" width="4.9" height="204.1" fill="#e74c3c"/>
<line x1="66.0" y1="294.0" x2="66.0" y2="298.0" stroke="#5b6b7c" stroke-width="1"/>
<text x="66.0" y="312.0" font-family="Segoe UI, Helvetica, Arial, sans-serif" font-size="10" fill="#5b6b7c" text-anchor="middle" font-weight="normal">06-14 12:00</text>
<line x1="218.5" y1="294.0" x2="218.5" y2="298.0" stroke="#5b6b7c" stroke-width="1"/>
<text x="218.5" y="312.0" font-family="Segoe UI, Helvetica, Arial, sans-serif" font-size="10" fill="#5b6b7c" text-anchor="middle" font-weight="normal">06-21 18:00</text>
<line x1="365.8" y1="294.0" x2="365.8" y2="298.0" stroke="#5b6b7c" stroke-width="1"/>
<text x="365.8" y="312.0" font-family="Segoe UI, Helvetica, Arial, sans-serif" font-size="10" fill="#5b6b7c" text-anchor="middle" font-weight="normal">06-28 18:00</text>
<line x1="518.4" y1="294.0" x2="518.4" y2="298.0" stroke="#5b6b7c" stroke-width="1"/>
<text x="518.4" y="312.0" font-family="Segoe UI, Helvetica, Arial, sans-serif" font-size="10" fill="#5b6b7c" text-anchor="middle" font-weight="normal">07-06 00:00</text>
<line x1="670.9" y1="294.0" x2="670.9" y2="298.0" stroke="#5b6b7c" stroke-width="1"/>
<text x="670.9" y="312.0" font-family="Segoe UI, Helvetica, Arial, sans-serif" font-size="10" fill="#5b6b7c" text-anchor="middle" font-weight="normal">07-13 06:00</text>
<line x1="818.2" y1="294.0" x2="818.2" y2="298.0" stroke="#5b6b7c" stroke-width="1"/>
<text x="818.2" y="312.0" font-family="Segoe UI, Helvetica, Arial, sans-serif" font-size="10" fill="#5b6b7c" text-anchor="middle" font-weight="normal">07-20 06:00</text>
<line x1="970.7" y1="294.0" x2="970.7" y2="298.0" stroke="#5b6b7c" stroke-width="1"/>
<text x="970.7" y="312.0" font-family="Segoe UI, Helvetica, Arial, sans-serif" font-size="10" fill="#5b6b7c" text-anchor="middle" font-weight="normal">07-27 12:00</text>
<rect x="726.0" y="43.0" width="11.0" height="11.0" fill="#9fb8cc"/>
<text x="742.0" y="52.0" font-family="Segoe UI, Helvetica, Arial, sans-serif" font-size="11" fill="#22313f" text-anchor="start" font-weight="normal">normal bucket</text>
<rect x="846.0" y="43.0" width="11.0" height="11.0" fill="#e74c3c"/>
<text x="862.0" y="52.0" font-family="Segoe UI, Helvetica, Arial, sans-serif" font-size="11" fill="#22313f" text-anchor="start" font-weight="normal">anomalous bucket</text>
</svg>